<svg viewBox="0 0 1170 180" xmlns="http://www.w3.org/2000/svg" font-family="Helvetica, Arial, sans-serif">
<rect x="0" y="0" width="1170" height="180" fill="#FFFFFF"/>
<text x="585.0" y="34" text-anchor="middle" font-size="20" font-weight="bold" fill="#232F3E">Incident Response Simulation — Architecture</text>
<defs>
      <marker id="arrow" markerWidth="10" markerHeight="10" refX="8" refY="3" orient="auto" markerUnits="strokeWidth">
        <path d="M0,0 L0,6 L9,3 z" fill="#879196"/>
      </marker>
    </defs>
<rect x="40.0" y="70" width="170" height="70" rx="8" fill="#C0392B" stroke="#879196" stroke-width="1"/>
<text x="125.0" y="97.0" text-anchor="middle" font-size="12.5" font-weight="600" fill="#FFFFFF">1. Identify</text>
<text x="125.0" y="113.0" text-anchor="middle" font-size="12.5" font-weight="600" fill="#FFFFFF">(GuardDuty finding)</text>
<rect x="270.0" y="70" width="170" height="70" rx="8" fill="#FF9900" stroke="#879196" stroke-width="1"/>
<text x="355.0" y="97.0" text-anchor="middle" font-size="12.5" font-weight="600" fill="#232F3E">2. Contain (isolate</text>
<text x="355.0" y="113.0" text-anchor="middle" font-size="12.5" font-weight="600" fill="#232F3E">/ revoke)</text>
<rect x="500.0" y="70" width="170" height="70" rx="8" fill="#FF9900" stroke="#879196" stroke-width="1"/>
<text x="585.0" y="97.0" text-anchor="middle" font-size="12.5" font-weight="600" fill="#232F3E">3. Eradicate (rotate</text>
<text x="585.0" y="113.0" text-anchor="middle" font-size="12.5" font-weight="600" fill="#232F3E">creds)</text>
<rect x="730.0" y="70" width="170" height="70" rx="8" fill="#2E7D32" stroke="#879196" stroke-width="1"/>
<text x="815.0" y="97.0" text-anchor="middle" font-size="12.5" font-weight="600" fill="#FFFFFF">4. Recover (restore</text>
<text x="815.0" y="113.0" text-anchor="middle" font-size="12.5" font-weight="600" fill="#FFFFFF">service)</text>
<rect x="960.0" y="70" width="170" height="70" rx="8" fill="#232F3E" stroke="#879196" stroke-width="1"/>
<text x="1045.0" y="97.0" text-anchor="middle" font-size="12.5" font-weight="600" fill="#FFFFFF">5. Lessons Learned</text>
<text x="1045.0" y="113.0" text-anchor="middle" font-size="12.5" font-weight="600" fill="#FFFFFF">(preventive control)</text>
<line x1="210.0" y1="105.0" x2="270.0" y2="105.0" stroke="#879196" stroke-width="2" marker-end="url(#arrow)"/>
<line x1="440.0" y1="105.0" x2="500.0" y2="105.0" stroke="#879196" stroke-width="2" marker-end="url(#arrow)"/>
<line x1="670.0" y1="105.0" x2="730.0" y2="105.0" stroke="#879196" stroke-width="2" marker-end="url(#arrow)"/>
<line x1="900.0" y1="105.0" x2="960.0" y2="105.0" stroke="#879196" stroke-width="2" marker-end="url(#arrow)"/>
</svg>